<svg xmlns="http://www.w3.org/2000/svg" viewBox="0 0 1077.37 453.17" fill="none"><path d="M1022.11 439.76L862.49.29l-.11-.29h-3.15l-32.87 90.31-59.84 164.41-.14-.13c-20.74-18.3-50-29.74-86.85-34l-11.24-1.16 11.15-1.43c60.77-10.92 101.62-49.3 101.62-95.54 0-63.41-59.64-107.67-145.07-107.67H458.24V18h51.65v327.65L384.45.29l-.11-.29h-3.15l-32.87 90.31-126.78 348.32-.78.09c-2.167.267-4.31.48-6.43.64-3.19.25-6.36.4-9.54.4H76.69L320.19 18l1.81-3.17H24.19V145.3h3.16C27.91 81.75 64.92 18 146.69 18h98.65L0 442.92h330.52v-125h-3.16c-.43 55.39-31.83 108-100.11 119.88l-2.17.37 52-142.93h145.67l52.49 144.52h-51.78v3.16h203.23v-3.16h-52v-218h60c61.06 0 96.08 27.28 96.08 74.82v38.67c0 4.26.29 10.49.61 15.7v.19l-32.25 88.6H657v3.16h87.21v-3.16h-41.68l29.37-80.68c.06.78.09 1.25.09 1.25l.81 7.27.78 4.81c4.9 29.75 16.28 51.62 33.81 65l2.52 1.83c13.32 9.26 29.87 13.95 49.22 13.95 25.63 0 42.72-6.39 56.83-21.43l-1.85-1.74c-13 12-23.91 16.86-37.58 16.86-23.29 0-35.48-28.25-35.48-56.11v-54.18a121.65 121.65 0 00-6.23-39.57l-.58-1.68v-.06h106.55l52.49 144.52H901.5v3.16h175.87v-3.16zM278.24 292.08L350 94.93l71.6 197.15zm296.48-73.49V18h45.8C681.7 18 714 54.37 714 123.14c0 73.14-18.54 95.45-79.31 95.45zM793 292.08l-.31-.78a97.91 97.91 0 00-20.31-31l-3-3-.32-.3L828 94.93l71.6 197.15z" fill="#000"/></svg>